<svg id="Layer_1" data-name="Layer 1" xmlns="http://www.w3.org/2000/svg" viewBox="0 0 56 56"><defs><style>.cls-1{fill:none;}.cls-1,.cls-2{stroke:#75c5f5;stroke-linecap:round;stroke-linejoin:round;stroke-width:0.75px;}.cls-2{fill:#75c5f5;}</style></defs><path class="cls-1" d="M32.52,39c0,2.21-4.52,4-4.52,4s-4.52-1.8-4.52-4,2-3.21,4.52-3.21S32.52,36.8,32.52,39Z"/><path class="cls-1" d="M28,44.48c0,1.08-1.66,2.17-3.82,2.17-3.19,0-4.46-2.71-6.12-2.71"/><path class="cls-1" d="M28,44.48c0,1.08,1.66,2.17,3.82,2.17,3.19,0,4.46-2.71,6.12-2.71"/><line class="cls-1" x1="28" y1="44.84" x2="28" y2="43.03"/><path class="cls-1" d="M15.35,9.61c3.24,1.81,4.67-.9,12.65-.9"/><path class="cls-1" d="M28,53.87c-7.68,0-9.34-5.18-10.84-6.32C12,43.6,9,39.42,9,32.19"/><circle class="cls-1" cx="18.06" cy="26.77" r="2.71"/><circle class="cls-1" cx="37.94" cy="26.77" r="2.71"/><path class="cls-1" d="M15.35,9.61A4.44,4.44,0,0,0,10.84,6C6.4,6,0,17.54,0,19.55A7.87,7.87,0,0,1,2.71,25c.34,4.85,4.35,10.1,7.23,5.42,2.6-4.24-4-16.37.9-20.78"/><path class="cls-1" d="M40.65,9.61C37.41,11.42,36,8.71,28,8.71"/><path class="cls-1" d="M28,53.87c7.68,0,9.34-5.18,10.84-6.32C44,43.6,47,39.42,47,32.19"/><path class="cls-1" d="M40.65,9.61A4.44,4.44,0,0,1,45.16,6C49.6,6,56,17.54,56,19.55A7.87,7.87,0,0,0,53.29,25c-.34,4.85-4.35,10.1-7.23,5.42-2.6-4.24,4-16.37-.9-20.78"/><path class="cls-1" d="M25.29,49.12a15.91,15.91,0,0,0,5.42,0"/><circle class="cls-2" cx="18.61" cy="27.61" r="1.11"/><circle class="cls-2" cx="38.89" cy="27.61" r="1.11"/></svg>